<svg width="49" height="48" xmlns="http://www.w3.org/2000/svg" xmlns:xlink="http://www.w3.org/1999/xlink" xml:space="preserve" overflow="hidden"><defs><clipPath id="clip0"><rect x="537" y="336" width="49" height="48"/></clipPath><clipPath id="clip1"><rect x="537" y="336" width="49" height="48"/></clipPath><clipPath id="clip2"><rect x="538" y="336" width="48" height="48"/></clipPath><clipPath id="clip3"><rect x="538" y="336" width="48" height="48"/></clipPath></defs><g clip-path="url(#clip0)" transform="translate(-537 -336)"><g clip-path="url(#clip1)"><g clip-path="url(#clip2)"><g clip-path="url(#clip3)"><g><path d="M44.5783 27.026C44.5783 26.5685 44.2011 26.1894 43.7466 26.1894 43.678 26.1894 43.6173 26.1982 43.5487 26.2149 36.1626 27.742 28.4669 28.3455 20.5822 27.9144 18.1548 27.7851 15.7607 27.9144 13.4106 28.0957 13.2304 28.1133 13.0501 28.13 12.8787 28.1564 10.991 28.415 9.19739 29.2428 7.79069 30.6064 6.54661 31.8132 5.67184 33.3747 5.29469 35.0655 4.848 37.102 5.16539 39.2062 6.03233 41.0958 6.87282 42.9247 8.21976 44.5117 9.88408 45.65 11.6944 46.8578 13.6937 47.807 15.7871 48.4359 17.1076 48.8336 18.2831 49.0746 19.6643 49.247 19.682 48.7298 20.4793 47.9099 20.5058 47.522 20.5313 47.134 20.2305 46.7804 19.8446 46.754 17.6826 46.8323 16.0957 46.7804 14.0709 46.03 11.9951 45.2532 10.1074 43.9768 8.61453 42.3291 7.89355 41.5445 7.30188 40.6727 6.92473 39.6725 6.54661 38.6802 6.384 37.6105 6.44376 36.5496 6.64947 32.9868 9.42955 29.9765 12.9816 29.4671 14.9456 29.183 16.9793 29.6914 18.575 30.8562 19.4077 31.4684 20.1277 32.2452 20.6508 33.1337 21.2434 34.1339 21.7411 35.1948 22.0839 36.3164 22.8049 38.6371 22.8647 41.182 22.5561 43.5801 22.418 44.5979 22.2122 45.6069 21.9203 46.5904 21.7577 47.1507 21.5608 47.712 21.3375 48.2469 21.2944 48.3497 21.2777 48.4536 21.2777 48.5662 21.2777 49.0227 21.6372 49.3851 22.0927 49.394L22.2985 49.394C27.7636 49.394 32.7654 47.4358 36.6426 44.1923 36.6426 44.1923 36.6514 44.1923 36.6602 44.1835 36.814 44.0287 36.9091 43.8211 36.9091 43.5967 36.9091 43.4243 36.8483 43.2784 36.7719 43.1402 35.3221 40.6296 32.1561 37.0237 32.1561 37.0237 32.1561 37.0237 35.7336 40.2152 38.3069 41.6131 38.4441 41.6904 38.5989 41.7512 38.7703 41.7512 39.0024 41.7512 39.2082 41.6562 39.3541 41.5092 39.3541 41.5014 39.3708 41.4926 39.3796 41.4838 42.6397 37.6281 44.5959 32.6586 44.5959 27.2327L44.5959 27.026" fill="#0B8BEE" fill-rule="nonzero" fill-opacity="1" transform="matrix(1.02333 0 0 1 537.997 330.949)"/><path d="M4.22106 37.1794C3.33747 35.2379 2.79673 33.1337 2.66841 31.0031 2.65078 30.718 2.65959 30.3301 2.65078 30.0362 2.65078 29.6395 2.32555 29.3123 1.93078 29.3123 1.536 29.3123 0.686694 30.0362 0.0862041 30.0362 0.69551 34.7207 2.82318 39.1543 6.11755 42.5623 7.72114 44.2354 9.72049 45.5207 11.9853 46.1329 13.9327 46.6599 15.9918 46.418 17.7933 45.5207 18.6514 45.0896 19.441 44.5029 20.1012 43.7956 20.7958 43.0452 21.3365 42.1303 21.8341 41.2418 22.3582 40.3024 22.8127 39.3189 23.2242 38.3265 23.662 37.2656 24.0225 36.1783 24.5025 35.135 26.3128 31.1922 28.8696 27.5873 32.3187 24.9042 34.0085 23.5925 35.8442 22.4885 37.8005 21.6264 38.7958 21.1866 39.8165 20.8153 40.8549 20.496 41.3525 20.3491 41.858 20.2109 42.3644 20.0905 42.8189 19.9523 43.0678 19.4694 42.9218 19.0296 41.6522 15.8469 39.6274 12.9737 37.0629 10.6962 37.0452 10.6795 37.0286 10.6707 37.0109 10.6531 36.865 10.5238 36.6769 10.4464 36.4624 10.4464 36.239 10.4464 36.0411 10.5845 35.8619 10.705 31.7525 13.5517 28.7148 18.2968 28.7148 18.2968 28.7148 18.2968 30.3193 14.2423 33.742 9.23853 33.8282 9.11804 33.8625 8.96229 33.8625 8.80751 33.8625 8.52245 33.7254 8.27265 33.5109 8.12571 33.4854 8.10906 33.4589 8.09143 33.4247 8.0738 31.3146 6.84931 28.9979 5.96082 26.5871 5.48669 24.8376 5.13306 23.0351 4.99494 21.2513 5.07233L21.2082 5.07233C20.7624 5.08996 20.4186 5.45143 20.402 5.90008 20.1786 11.7228 21.3198 21.7381 21.3198 21.7381 21.3198 21.7381 19.2774 11.8697 17.2614 6.39184 17.1419 6.05584 16.8411 5.80506 16.4718 5.80506 16.4209 5.80506 16.3611 5.80506 16.3092 5.82269L16.2926 5.82269C16.1466 5.8658 16.0007 5.90008 15.8635 5.94318 12.5006 6.93551 9.38547 8.73012 6.84637 11.1282 6.40849 11.5416 5.98825 11.9736 5.58563 12.4222 5.57682 12.43 5.568 12.4477 5.55918 12.4477 5.42204 12.5946 5.33682 12.7925 5.33682 13.008 5.33682 13.2245 5.4142 13.4743 5.58563 13.5948 9.97812 16.9166 13.2206 20.7027 13.2206 20.7027 13.2206 20.7027 9.06808 17.6493 4.1182 15.7087 3.98106 15.6568 3.84392 15.5873 3.68914 15.5873 3.40604 15.5873 3.14841 15.7342 2.99461 15.9497L2.99461 15.9673C2.27363 17.1752 1.67314 18.4604 1.20098 19.7799 0.592653 21.4795 0.205714 23.2389 0.026449 25.0158-0.0166531 25.4733-0.0509388 25.9396 0.420245 26.1894 0.609306 26.2932 0.806204 26.3099 1.0129 26.2668 1.32147 26.207 1.62122 26.1463 1.93078 26.0944 3.10629 25.9043 4.30727 25.8103 5.49061 25.8269 7.87592 25.8534 10.2612 26.2844 12.5006 27.1122 14.5675 27.8802 16.4552 29.088 17.8795 30.77 20.5734 33.9527 22.0056 39.4217 18.9002 42.8033 17.4847 44.3647 15.3825 45.1239 13.2813 44.9339 12.1998 44.831 11.2477 44.4598 10.3043 43.9504 9.4462 43.4851 8.63118 42.9502 7.89355 42.3037 6.2978 40.897 5.07918 39.0681 4.21224 37.1451" fill="#FFCD00" fill-rule="nonzero" fill-opacity="1" transform="matrix(1.02333 0 0 1 537.997 330.949)"/><path d="M60.672 15.3032C60.672 12.7494 61.2118 12.4731 64.5149 12.0598L64.5149 10.6883 51.5432 10.6883 51.5432 12.0598C54.7944 12.4731 55.3871 12.7406 55.3871 15.3032L55.3871 31.6839C55.3871 39.5344 60.1313 43.1833 67.7241 43.1833 74.1845 43.1833 79.3401 39.5344 79.3401 31.822L79.3401 15.3463C79.3401 12.7925 79.9239 12.4731 83.184 12.0598L83.184 10.6883 72.9228 10.6883 72.9228 12.0598C76.6717 12.4222 77.3064 12.7925 77.3064 15.3463L77.3064 31.0031C77.3064 37.7143 73.7809 40.4914 68.2727 40.4914 63.3482 40.4914 60.6798 37.0668 60.6798 31.3224L60.6798 15.3032 60.672 15.3032Z" fill="#0B8BEE" fill-rule="nonzero" fill-opacity="1" transform="matrix(1.02333 0 0 1 537.997 330.949)"/><path d="M83.1664 10.6962 82.4885 20.6949 83.7071 20.6949C86.3745 14.1208 87.3698 12.2057 91.1197 12.2057L94.0536 12.2057 94.0536 38.2658C94.0536 40.8196 92.878 40.9577 89.7639 41.3711L89.7639 42.7435 103.594 42.7435 103.594 41.3711C100.522 40.9577 99.3463 40.8284 99.3463 38.2658L99.3463 12.2057 102.238 12.2057C105.987 12.2057 106.982 14.1208 109.694 20.6949L110.868 20.6949 110.19 10.6962 83.1664 10.6962Z" fill="#0B8BEE" fill-rule="nonzero" fill-opacity="1" transform="matrix(1.02333 0 0 1 537.997 330.949)"/><path d="M120.185 41.6826C116.162 41.6826 114.797 36.3429 114.797 30.002 114.797 23.662 116.694 19.8749 120.4 19.8749 124.467 19.8749 126.277 25.1716 126.277 31.5546 126.277 37.9386 123.892 41.6826 120.185 41.6826ZM120.392 43.1912C126.714 43.1912 131.596 38.0336 131.596 30.1832 131.596 23.1527 127.212 18.3654 120.614 18.3654 114.017 18.3654 109.41 23.5239 109.41 31.3215 109.41 38.4382 113.794 43.1833 120.392 43.1833L120.392 43.1912Z" fill="#0B8BEE" fill-rule="nonzero" fill-opacity="1" transform="matrix(1.02333 0 0 1 537.997 330.949)"/><path d="M140.424 29.7257 150.634 42.7347 156.15 42.7347 156.15 41.7767 144.988 27.8547 151.492 21.8331C152.529 20.8751 153.387 20.5136 155.104 20.1424L155.104 18.8229 145.838 18.8229 145.838 20.1424C147.965 20.3667 148.824 20.4617 148.824 21.3326 148.824 21.9282 148.326 22.4718 147.605 23.1096L140.424 29.7257ZM134.865 39.2669C134.865 40.9577 134.144 41.2771 131.88 41.4152L131.88 42.7347 142.904 42.7347 142.904 41.4152C140.648 41.2771 139.918 40.9577 139.918 39.2669L139.918 7.00408 139.146 7.00408 132.008 9.23853 132.008 9.92033 134.856 11.473 134.856 39.2669 134.865 39.2669Z" fill="#0B8BEE" fill-rule="nonzero" fill-opacity="1" transform="matrix(1.02333 0 0 1 537.997 330.949)"/><path d="M168.563 37.5331 162.739 22.9283C162.558 22.3847 162.463 22.0144 162.463 21.6519 162.463 20.5998 163.278 20.4186 165.577 20.1424L165.577 18.8229 154.553 18.8229 154.553 20.1424C156.183 20.5567 156.45 20.8751 156.861 21.8331L166.213 43.4674 165.397 45.6588C164.36 48.4878 162.824 49.1696 160.379 49.1696 159.118 49.1696 158.44 48.9884 157.573 48.7553L157.573 50.5322C157.977 51.9047 159.47 52.7236 160.92 52.7236 163.767 52.7236 165.166 50.7654 166.522 47.2888L176.284 21.8243C176.645 20.9104 176.962 20.5479 178.592 20.1336L178.592 18.814 171.095 18.814 171.095 20.1336C173.402 20.4098 174.209 20.591 174.209 21.6431 174.209 22.0056 174.115 22.3768 173.934 22.9205L168.554 37.5242 168.563 37.5331Z" fill="#0B8BEE" fill-rule="nonzero" fill-opacity="1" transform="matrix(1.02333 0 0 1 537.997 330.949)"/><path d="M188.382 41.6826C184.359 41.6826 182.557 36.3429 182.557 30.002 182.557 23.662 184.453 19.8749 188.159 19.8749 192.226 19.8749 194.037 25.1716 194.037 31.5546 194.037 37.9386 192.097 41.6826 188.391 41.6826L188.382 41.6826ZM188.159 43.1912C194.482 43.1912 199.364 38.0336 199.364 30.1832 199.364 23.1527 194.98 18.3654 188.382 18.3654 181.785 18.3654 177.178 23.5239 177.178 31.3215 177.178 38.4382 181.561 43.1833 188.159 43.1833L188.159 43.1912Z" fill="#0B8BEE" fill-rule="nonzero" fill-opacity="1" transform="matrix(1.02333 0 0 1 537.997 330.949)"/></g></g></g></g></g></svg>